G04 (created by PCBNEW (2013-june-11)-stable) date Thu 26 Dec 2013 21:04:28 CET*
%MOIN*%
G04 Gerber Fmt 3.4, Leading zero omitted, Abs format*
%FSLAX34Y34*%
G01*
G70*
G90*
G04 APERTURE LIST*
%ADD10C,0.006*%
%ADD11C,0.066*%
%ADD12C,0.15*%
%ADD13R,0.15X0.15*%
%ADD14C,0.16*%
G04 APERTURE END LIST*
G54D10*
G54D11*
X47500Y-48000D03*
X48500Y-48000D03*
X43500Y-44000D03*
X44500Y-44000D03*
X47500Y-40000D03*
X48500Y-40000D03*
X51500Y-44000D03*
X52500Y-44000D03*
X55500Y-40000D03*
X56500Y-40000D03*
X59500Y-44000D03*
X60500Y-44000D03*
X63500Y-40000D03*
X64500Y-40000D03*
X31500Y-48000D03*
X32500Y-48000D03*
X35500Y-52000D03*
X36500Y-52000D03*
X39500Y-48000D03*
X40500Y-48000D03*
X43500Y-52000D03*
X44500Y-52000D03*
X39500Y-40000D03*
X40500Y-40000D03*
X51500Y-52000D03*
X52500Y-52000D03*
X55500Y-48000D03*
X56500Y-48000D03*
X59500Y-52000D03*
X60500Y-52000D03*
X63500Y-48000D03*
X64500Y-48000D03*
X31500Y-56000D03*
X32500Y-56000D03*
X35500Y-60000D03*
X36500Y-60000D03*
X39500Y-56000D03*
X40500Y-56000D03*
X43500Y-60000D03*
X44500Y-60000D03*
X47500Y-56000D03*
X48500Y-56000D03*
X35500Y-36000D03*
X36500Y-36000D03*
X35500Y-28000D03*
X36500Y-28000D03*
X39500Y-24000D03*
X40500Y-24000D03*
X43500Y-28000D03*
X44500Y-28000D03*
X47500Y-24000D03*
X48500Y-24000D03*
X51500Y-28000D03*
X52500Y-28000D03*
X55500Y-24000D03*
X56500Y-24000D03*
X59500Y-28000D03*
X60500Y-28000D03*
X63500Y-24000D03*
X64500Y-24000D03*
X31500Y-32000D03*
X32500Y-32000D03*
X51500Y-60000D03*
X52500Y-60000D03*
X39500Y-32000D03*
X40500Y-32000D03*
X43500Y-36000D03*
X44500Y-36000D03*
X47500Y-32000D03*
X48500Y-32000D03*
X51500Y-36000D03*
X52500Y-36000D03*
X55500Y-32000D03*
X56500Y-32000D03*
X59500Y-36000D03*
X60500Y-36000D03*
X63500Y-32000D03*
X64500Y-32000D03*
X31500Y-40000D03*
X32500Y-40000D03*
X35500Y-44000D03*
X36500Y-44000D03*
X31500Y-24000D03*
X32500Y-24000D03*
X63500Y-72000D03*
X64500Y-72000D03*
X59500Y-76000D03*
X60500Y-76000D03*
X55500Y-64000D03*
X56500Y-64000D03*
X55500Y-56000D03*
X56500Y-56000D03*
X59500Y-60000D03*
X60500Y-60000D03*
X63500Y-56000D03*
X64500Y-56000D03*
X31500Y-64000D03*
X32500Y-64000D03*
X35500Y-68000D03*
X36500Y-68000D03*
X39500Y-64000D03*
X40500Y-64000D03*
X43500Y-68000D03*
X44500Y-68000D03*
X47500Y-64000D03*
X48500Y-64000D03*
X51500Y-68000D03*
X52500Y-68000D03*
X59500Y-68000D03*
X60500Y-68000D03*
X63500Y-64000D03*
X64500Y-64000D03*
X31500Y-72000D03*
X32500Y-72000D03*
X35500Y-76000D03*
X36500Y-76000D03*
X39500Y-72000D03*
X40500Y-72000D03*
X43500Y-76000D03*
X44500Y-76000D03*
X47500Y-72000D03*
X48500Y-72000D03*
X51500Y-76000D03*
X52500Y-76000D03*
X55500Y-72000D03*
X56500Y-72000D03*
G54D12*
X30800Y-80000D03*
G54D13*
X32800Y-80000D03*
G54D14*
X27637Y-20078D03*
X63858Y-20078D03*
X63858Y-79921D03*
X27637Y-79921D03*
M02*
