G04 (created by PCBNEW (2013-june-11)-stable) date Thu 26 Dec 2013 21:04:28 CET*
%MOIN*%
G04 Gerber Fmt 3.4, Leading zero omitted, Abs format*
%FSLAX34Y34*%
G01*
G70*
G90*
G04 APERTURE LIST*
%ADD10C,0.006*%
%ADD11C,0.005*%
G04 APERTURE END LIST*
G54D10*
G54D11*
X31050Y-58000D02*
X31950Y-58000D01*
X31950Y-58000D02*
X31950Y-58650D01*
X31050Y-59350D02*
X31050Y-60000D01*
X31050Y-60000D02*
X31950Y-60000D01*
X31950Y-60000D02*
X31950Y-59350D01*
X31050Y-58650D02*
X31050Y-58000D01*
X43950Y-42000D02*
X43050Y-42000D01*
X43050Y-42000D02*
X43050Y-41350D01*
X43950Y-40650D02*
X43950Y-40000D01*
X43950Y-40000D02*
X43050Y-40000D01*
X43050Y-40000D02*
X43050Y-40650D01*
X43950Y-41350D02*
X43950Y-42000D01*
X31050Y-50000D02*
X31950Y-50000D01*
X31950Y-50000D02*
X31950Y-50650D01*
X31050Y-51350D02*
X31050Y-52000D01*
X31050Y-52000D02*
X31950Y-52000D01*
X31950Y-52000D02*
X31950Y-51350D01*
X31050Y-50650D02*
X31050Y-50000D01*
X43950Y-50000D02*
X43050Y-50000D01*
X43050Y-50000D02*
X43050Y-49350D01*
X43950Y-48650D02*
X43950Y-48000D01*
X43950Y-48000D02*
X43050Y-48000D01*
X43050Y-48000D02*
X43050Y-48650D01*
X43950Y-49350D02*
X43950Y-50000D01*
X55050Y-50000D02*
X55950Y-50000D01*
X55950Y-50000D02*
X55950Y-50650D01*
X55050Y-51350D02*
X55050Y-52000D01*
X55050Y-52000D02*
X55950Y-52000D01*
X55950Y-52000D02*
X55950Y-51350D01*
X55050Y-50650D02*
X55050Y-50000D01*
X55050Y-74000D02*
X55950Y-74000D01*
X55950Y-74000D02*
X55950Y-74650D01*
X55050Y-75350D02*
X55050Y-76000D01*
X55050Y-76000D02*
X55950Y-76000D01*
X55950Y-76000D02*
X55950Y-75350D01*
X55050Y-74650D02*
X55050Y-74000D01*
X55050Y-42000D02*
X55950Y-42000D01*
X55950Y-42000D02*
X55950Y-42650D01*
X55050Y-43350D02*
X55050Y-44000D01*
X55050Y-44000D02*
X55950Y-44000D01*
X55950Y-44000D02*
X55950Y-43350D01*
X55050Y-42650D02*
X55050Y-42000D01*
X43950Y-58000D02*
X43050Y-58000D01*
X43050Y-58000D02*
X43050Y-57350D01*
X43950Y-56650D02*
X43950Y-56000D01*
X43950Y-56000D02*
X43050Y-56000D01*
X43050Y-56000D02*
X43050Y-56650D01*
X43950Y-57350D02*
X43950Y-58000D01*
X43950Y-74000D02*
X43050Y-74000D01*
X43050Y-74000D02*
X43050Y-73350D01*
X43950Y-72650D02*
X43950Y-72000D01*
X43950Y-72000D02*
X43050Y-72000D01*
X43050Y-72000D02*
X43050Y-72650D01*
X43950Y-73350D02*
X43950Y-74000D01*
X55050Y-58000D02*
X55950Y-58000D01*
X55950Y-58000D02*
X55950Y-58650D01*
X55050Y-59350D02*
X55050Y-60000D01*
X55050Y-60000D02*
X55950Y-60000D01*
X55950Y-60000D02*
X55950Y-59350D01*
X55050Y-58650D02*
X55050Y-58000D01*
X31050Y-74000D02*
X31950Y-74000D01*
X31950Y-74000D02*
X31950Y-74650D01*
X31050Y-75350D02*
X31050Y-76000D01*
X31050Y-76000D02*
X31950Y-76000D01*
X31950Y-76000D02*
X31950Y-75350D01*
X31050Y-74650D02*
X31050Y-74000D01*
X31050Y-66000D02*
X31950Y-66000D01*
X31950Y-66000D02*
X31950Y-66650D01*
X31050Y-67350D02*
X31050Y-68000D01*
X31050Y-68000D02*
X31950Y-68000D01*
X31950Y-68000D02*
X31950Y-67350D01*
X31050Y-66650D02*
X31050Y-66000D01*
X43950Y-66000D02*
X43050Y-66000D01*
X43050Y-66000D02*
X43050Y-65350D01*
X43950Y-64650D02*
X43950Y-64000D01*
X43950Y-64000D02*
X43050Y-64000D01*
X43050Y-64000D02*
X43050Y-64650D01*
X43950Y-65350D02*
X43950Y-66000D01*
X55050Y-66000D02*
X55950Y-66000D01*
X55950Y-66000D02*
X55950Y-66650D01*
X55050Y-67350D02*
X55050Y-68000D01*
X55050Y-68000D02*
X55950Y-68000D01*
X55950Y-68000D02*
X55950Y-67350D01*
X55050Y-66650D02*
X55050Y-66000D01*
X31050Y-34000D02*
X31950Y-34000D01*
X31950Y-34000D02*
X31950Y-34650D01*
X31050Y-35350D02*
X31050Y-36000D01*
X31050Y-36000D02*
X31950Y-36000D01*
X31950Y-36000D02*
X31950Y-35350D01*
X31050Y-34650D02*
X31050Y-34000D01*
X31050Y-26000D02*
X31950Y-26000D01*
X31950Y-26000D02*
X31950Y-26650D01*
X31050Y-27350D02*
X31050Y-28000D01*
X31050Y-28000D02*
X31950Y-28000D01*
X31950Y-28000D02*
X31950Y-27350D01*
X31050Y-26650D02*
X31050Y-26000D01*
X43950Y-26000D02*
X43050Y-26000D01*
X43050Y-26000D02*
X43050Y-25350D01*
X43950Y-24650D02*
X43950Y-24000D01*
X43950Y-24000D02*
X43050Y-24000D01*
X43050Y-24000D02*
X43050Y-24650D01*
X43950Y-25350D02*
X43950Y-26000D01*
X55050Y-26000D02*
X55950Y-26000D01*
X55950Y-26000D02*
X55950Y-26650D01*
X55050Y-27350D02*
X55050Y-28000D01*
X55050Y-28000D02*
X55950Y-28000D01*
X55950Y-28000D02*
X55950Y-27350D01*
X55050Y-26650D02*
X55050Y-26000D01*
X43950Y-34000D02*
X43050Y-34000D01*
X43050Y-34000D02*
X43050Y-33350D01*
X43950Y-32650D02*
X43950Y-32000D01*
X43950Y-32000D02*
X43050Y-32000D01*
X43050Y-32000D02*
X43050Y-32650D01*
X43950Y-33350D02*
X43950Y-34000D01*
X31050Y-42000D02*
X31950Y-42000D01*
X31950Y-42000D02*
X31950Y-42650D01*
X31050Y-43350D02*
X31050Y-44000D01*
X31050Y-44000D02*
X31950Y-44000D01*
X31950Y-44000D02*
X31950Y-43350D01*
X31050Y-42650D02*
X31050Y-42000D01*
X55050Y-34000D02*
X55950Y-34000D01*
X55950Y-34000D02*
X55950Y-34650D01*
X55050Y-35350D02*
X55050Y-36000D01*
X55050Y-36000D02*
X55950Y-36000D01*
X55950Y-36000D02*
X55950Y-35350D01*
X55050Y-34650D02*
X55050Y-34000D01*
X31621Y-58807D02*
X31478Y-58707D01*
X31621Y-58635D02*
X31321Y-58635D01*
X31321Y-58750D01*
X31335Y-58778D01*
X31350Y-58792D01*
X31378Y-58807D01*
X31421Y-58807D01*
X31450Y-58792D01*
X31464Y-58778D01*
X31478Y-58750D01*
X31478Y-58635D01*
X31621Y-59092D02*
X31621Y-58921D01*
X31621Y-59007D02*
X31321Y-59007D01*
X31364Y-58978D01*
X31392Y-58950D01*
X31407Y-58921D01*
X31321Y-59192D02*
X31321Y-59378D01*
X31435Y-59278D01*
X31435Y-59321D01*
X31450Y-59350D01*
X31464Y-59364D01*
X31492Y-59378D01*
X31564Y-59378D01*
X31592Y-59364D01*
X31607Y-59350D01*
X31621Y-59321D01*
X31621Y-59235D01*
X31607Y-59207D01*
X31592Y-59192D01*
X43621Y-40950D02*
X43478Y-40850D01*
X43621Y-40778D02*
X43321Y-40778D01*
X43321Y-40892D01*
X43335Y-40921D01*
X43350Y-40935D01*
X43378Y-40950D01*
X43421Y-40950D01*
X43450Y-40935D01*
X43464Y-40921D01*
X43478Y-40892D01*
X43478Y-40778D01*
X43450Y-41121D02*
X43435Y-41092D01*
X43421Y-41078D01*
X43392Y-41064D01*
X43378Y-41064D01*
X43350Y-41078D01*
X43335Y-41092D01*
X43321Y-41121D01*
X43321Y-41178D01*
X43335Y-41207D01*
X43350Y-41221D01*
X43378Y-41235D01*
X43392Y-41235D01*
X43421Y-41221D01*
X43435Y-41207D01*
X43450Y-41178D01*
X43450Y-41121D01*
X43464Y-41092D01*
X43478Y-41078D01*
X43507Y-41064D01*
X43564Y-41064D01*
X43592Y-41078D01*
X43607Y-41092D01*
X43621Y-41121D01*
X43621Y-41178D01*
X43607Y-41207D01*
X43592Y-41221D01*
X43564Y-41235D01*
X43507Y-41235D01*
X43478Y-41221D01*
X43464Y-41207D01*
X43450Y-41178D01*
X31621Y-50807D02*
X31478Y-50707D01*
X31621Y-50635D02*
X31321Y-50635D01*
X31321Y-50750D01*
X31335Y-50778D01*
X31350Y-50792D01*
X31378Y-50807D01*
X31421Y-50807D01*
X31450Y-50792D01*
X31464Y-50778D01*
X31478Y-50750D01*
X31478Y-50635D01*
X31621Y-51092D02*
X31621Y-50921D01*
X31621Y-51007D02*
X31321Y-51007D01*
X31364Y-50978D01*
X31392Y-50950D01*
X31407Y-50921D01*
X31321Y-51278D02*
X31321Y-51307D01*
X31335Y-51335D01*
X31350Y-51350D01*
X31378Y-51364D01*
X31435Y-51378D01*
X31507Y-51378D01*
X31564Y-51364D01*
X31592Y-51350D01*
X31607Y-51335D01*
X31621Y-51307D01*
X31621Y-51278D01*
X31607Y-51250D01*
X31592Y-51235D01*
X31564Y-51221D01*
X31507Y-51207D01*
X31435Y-51207D01*
X31378Y-51221D01*
X31350Y-51235D01*
X31335Y-51250D01*
X31321Y-51278D01*
X43621Y-48807D02*
X43478Y-48707D01*
X43621Y-48635D02*
X43321Y-48635D01*
X43321Y-48750D01*
X43335Y-48778D01*
X43350Y-48792D01*
X43378Y-48807D01*
X43421Y-48807D01*
X43450Y-48792D01*
X43464Y-48778D01*
X43478Y-48750D01*
X43478Y-48635D01*
X43621Y-49092D02*
X43621Y-48921D01*
X43621Y-49007D02*
X43321Y-49007D01*
X43364Y-48978D01*
X43392Y-48950D01*
X43407Y-48921D01*
X43621Y-49378D02*
X43621Y-49207D01*
X43621Y-49292D02*
X43321Y-49292D01*
X43364Y-49264D01*
X43392Y-49235D01*
X43407Y-49207D01*
X55621Y-50807D02*
X55478Y-50707D01*
X55621Y-50635D02*
X55321Y-50635D01*
X55321Y-50750D01*
X55335Y-50778D01*
X55350Y-50792D01*
X55378Y-50807D01*
X55421Y-50807D01*
X55450Y-50792D01*
X55464Y-50778D01*
X55478Y-50750D01*
X55478Y-50635D01*
X55621Y-51092D02*
X55621Y-50921D01*
X55621Y-51007D02*
X55321Y-51007D01*
X55364Y-50978D01*
X55392Y-50950D01*
X55407Y-50921D01*
X55350Y-51207D02*
X55335Y-51221D01*
X55321Y-51250D01*
X55321Y-51321D01*
X55335Y-51350D01*
X55350Y-51364D01*
X55378Y-51378D01*
X55407Y-51378D01*
X55450Y-51364D01*
X55621Y-51192D01*
X55621Y-51378D01*
X55621Y-74807D02*
X55478Y-74707D01*
X55621Y-74635D02*
X55321Y-74635D01*
X55321Y-74750D01*
X55335Y-74778D01*
X55350Y-74792D01*
X55378Y-74807D01*
X55421Y-74807D01*
X55450Y-74792D01*
X55464Y-74778D01*
X55478Y-74750D01*
X55478Y-74635D01*
X55350Y-74921D02*
X55335Y-74935D01*
X55321Y-74964D01*
X55321Y-75035D01*
X55335Y-75064D01*
X55350Y-75078D01*
X55378Y-75092D01*
X55407Y-75092D01*
X55450Y-75078D01*
X55621Y-74907D01*
X55621Y-75092D01*
X55621Y-75378D02*
X55621Y-75207D01*
X55621Y-75292D02*
X55321Y-75292D01*
X55364Y-75264D01*
X55392Y-75235D01*
X55407Y-75207D01*
X55621Y-42950D02*
X55478Y-42850D01*
X55621Y-42778D02*
X55321Y-42778D01*
X55321Y-42892D01*
X55335Y-42921D01*
X55350Y-42935D01*
X55378Y-42950D01*
X55421Y-42950D01*
X55450Y-42935D01*
X55464Y-42921D01*
X55478Y-42892D01*
X55478Y-42778D01*
X55621Y-43092D02*
X55621Y-43150D01*
X55607Y-43178D01*
X55592Y-43192D01*
X55550Y-43221D01*
X55492Y-43235D01*
X55378Y-43235D01*
X55350Y-43221D01*
X55335Y-43207D01*
X55321Y-43178D01*
X55321Y-43121D01*
X55335Y-43092D01*
X55350Y-43078D01*
X55378Y-43064D01*
X55450Y-43064D01*
X55478Y-43078D01*
X55492Y-43092D01*
X55507Y-43121D01*
X55507Y-43178D01*
X55492Y-43207D01*
X55478Y-43221D01*
X55450Y-43235D01*
X43621Y-56807D02*
X43478Y-56707D01*
X43621Y-56635D02*
X43321Y-56635D01*
X43321Y-56750D01*
X43335Y-56778D01*
X43350Y-56792D01*
X43378Y-56807D01*
X43421Y-56807D01*
X43450Y-56792D01*
X43464Y-56778D01*
X43478Y-56750D01*
X43478Y-56635D01*
X43621Y-57092D02*
X43621Y-56921D01*
X43621Y-57007D02*
X43321Y-57007D01*
X43364Y-56978D01*
X43392Y-56950D01*
X43407Y-56921D01*
X43421Y-57350D02*
X43621Y-57350D01*
X43307Y-57278D02*
X43521Y-57207D01*
X43521Y-57392D01*
X43621Y-72807D02*
X43478Y-72707D01*
X43621Y-72635D02*
X43321Y-72635D01*
X43321Y-72750D01*
X43335Y-72778D01*
X43350Y-72792D01*
X43378Y-72807D01*
X43421Y-72807D01*
X43450Y-72792D01*
X43464Y-72778D01*
X43478Y-72750D01*
X43478Y-72635D01*
X43350Y-72921D02*
X43335Y-72935D01*
X43321Y-72964D01*
X43321Y-73035D01*
X43335Y-73064D01*
X43350Y-73078D01*
X43378Y-73092D01*
X43407Y-73092D01*
X43450Y-73078D01*
X43621Y-72907D01*
X43621Y-73092D01*
X43321Y-73278D02*
X43321Y-73307D01*
X43335Y-73335D01*
X43350Y-73350D01*
X43378Y-73364D01*
X43435Y-73378D01*
X43507Y-73378D01*
X43564Y-73364D01*
X43592Y-73350D01*
X43607Y-73335D01*
X43621Y-73307D01*
X43621Y-73278D01*
X43607Y-73250D01*
X43592Y-73235D01*
X43564Y-73221D01*
X43507Y-73207D01*
X43435Y-73207D01*
X43378Y-73221D01*
X43350Y-73235D01*
X43335Y-73250D01*
X43321Y-73278D01*
X55621Y-58807D02*
X55478Y-58707D01*
X55621Y-58635D02*
X55321Y-58635D01*
X55321Y-58750D01*
X55335Y-58778D01*
X55350Y-58792D01*
X55378Y-58807D01*
X55421Y-58807D01*
X55450Y-58792D01*
X55464Y-58778D01*
X55478Y-58750D01*
X55478Y-58635D01*
X55621Y-59092D02*
X55621Y-58921D01*
X55621Y-59007D02*
X55321Y-59007D01*
X55364Y-58978D01*
X55392Y-58950D01*
X55407Y-58921D01*
X55321Y-59364D02*
X55321Y-59221D01*
X55464Y-59207D01*
X55450Y-59221D01*
X55435Y-59250D01*
X55435Y-59321D01*
X55450Y-59350D01*
X55464Y-59364D01*
X55492Y-59378D01*
X55564Y-59378D01*
X55592Y-59364D01*
X55607Y-59350D01*
X55621Y-59321D01*
X55621Y-59250D01*
X55607Y-59221D01*
X55592Y-59207D01*
X31621Y-74807D02*
X31478Y-74707D01*
X31621Y-74635D02*
X31321Y-74635D01*
X31321Y-74750D01*
X31335Y-74778D01*
X31350Y-74792D01*
X31378Y-74807D01*
X31421Y-74807D01*
X31450Y-74792D01*
X31464Y-74778D01*
X31478Y-74750D01*
X31478Y-74635D01*
X31621Y-75092D02*
X31621Y-74921D01*
X31621Y-75007D02*
X31321Y-75007D01*
X31364Y-74978D01*
X31392Y-74950D01*
X31407Y-74921D01*
X31621Y-75235D02*
X31621Y-75292D01*
X31607Y-75321D01*
X31592Y-75335D01*
X31550Y-75364D01*
X31492Y-75378D01*
X31378Y-75378D01*
X31350Y-75364D01*
X31335Y-75350D01*
X31321Y-75321D01*
X31321Y-75264D01*
X31335Y-75235D01*
X31350Y-75221D01*
X31378Y-75207D01*
X31450Y-75207D01*
X31478Y-75221D01*
X31492Y-75235D01*
X31507Y-75264D01*
X31507Y-75321D01*
X31492Y-75350D01*
X31478Y-75364D01*
X31450Y-75378D01*
X31621Y-66807D02*
X31478Y-66707D01*
X31621Y-66635D02*
X31321Y-66635D01*
X31321Y-66750D01*
X31335Y-66778D01*
X31350Y-66792D01*
X31378Y-66807D01*
X31421Y-66807D01*
X31450Y-66792D01*
X31464Y-66778D01*
X31478Y-66750D01*
X31478Y-66635D01*
X31621Y-67092D02*
X31621Y-66921D01*
X31621Y-67007D02*
X31321Y-67007D01*
X31364Y-66978D01*
X31392Y-66950D01*
X31407Y-66921D01*
X31321Y-67350D02*
X31321Y-67292D01*
X31335Y-67264D01*
X31350Y-67250D01*
X31392Y-67221D01*
X31450Y-67207D01*
X31564Y-67207D01*
X31592Y-67221D01*
X31607Y-67235D01*
X31621Y-67264D01*
X31621Y-67321D01*
X31607Y-67350D01*
X31592Y-67364D01*
X31564Y-67378D01*
X31492Y-67378D01*
X31464Y-67364D01*
X31450Y-67350D01*
X31435Y-67321D01*
X31435Y-67264D01*
X31450Y-67235D01*
X31464Y-67221D01*
X31492Y-67207D01*
X43621Y-64807D02*
X43478Y-64707D01*
X43621Y-64635D02*
X43321Y-64635D01*
X43321Y-64750D01*
X43335Y-64778D01*
X43350Y-64792D01*
X43378Y-64807D01*
X43421Y-64807D01*
X43450Y-64792D01*
X43464Y-64778D01*
X43478Y-64750D01*
X43478Y-64635D01*
X43621Y-65092D02*
X43621Y-64921D01*
X43621Y-65007D02*
X43321Y-65007D01*
X43364Y-64978D01*
X43392Y-64950D01*
X43407Y-64921D01*
X43321Y-65192D02*
X43321Y-65392D01*
X43621Y-65264D01*
X55621Y-66807D02*
X55478Y-66707D01*
X55621Y-66635D02*
X55321Y-66635D01*
X55321Y-66750D01*
X55335Y-66778D01*
X55350Y-66792D01*
X55378Y-66807D01*
X55421Y-66807D01*
X55450Y-66792D01*
X55464Y-66778D01*
X55478Y-66750D01*
X55478Y-66635D01*
X55621Y-67092D02*
X55621Y-66921D01*
X55621Y-67007D02*
X55321Y-67007D01*
X55364Y-66978D01*
X55392Y-66950D01*
X55407Y-66921D01*
X55450Y-67264D02*
X55435Y-67235D01*
X55421Y-67221D01*
X55392Y-67207D01*
X55378Y-67207D01*
X55350Y-67221D01*
X55335Y-67235D01*
X55321Y-67264D01*
X55321Y-67321D01*
X55335Y-67350D01*
X55350Y-67364D01*
X55378Y-67378D01*
X55392Y-67378D01*
X55421Y-67364D01*
X55435Y-67350D01*
X55450Y-67321D01*
X55450Y-67264D01*
X55464Y-67235D01*
X55478Y-67221D01*
X55507Y-67207D01*
X55564Y-67207D01*
X55592Y-67221D01*
X55607Y-67235D01*
X55621Y-67264D01*
X55621Y-67321D01*
X55607Y-67350D01*
X55592Y-67364D01*
X55564Y-67378D01*
X55507Y-67378D01*
X55478Y-67364D01*
X55464Y-67350D01*
X55450Y-67321D01*
X31621Y-34950D02*
X31478Y-34850D01*
X31621Y-34778D02*
X31321Y-34778D01*
X31321Y-34892D01*
X31335Y-34921D01*
X31350Y-34935D01*
X31378Y-34950D01*
X31421Y-34950D01*
X31450Y-34935D01*
X31464Y-34921D01*
X31478Y-34892D01*
X31478Y-34778D01*
X31421Y-35207D02*
X31621Y-35207D01*
X31307Y-35135D02*
X31521Y-35064D01*
X31521Y-35250D01*
X31621Y-26950D02*
X31478Y-26850D01*
X31621Y-26778D02*
X31321Y-26778D01*
X31321Y-26892D01*
X31335Y-26921D01*
X31350Y-26935D01*
X31378Y-26950D01*
X31421Y-26950D01*
X31450Y-26935D01*
X31464Y-26921D01*
X31478Y-26892D01*
X31478Y-26778D01*
X31621Y-27235D02*
X31621Y-27064D01*
X31621Y-27150D02*
X31321Y-27150D01*
X31364Y-27121D01*
X31392Y-27092D01*
X31407Y-27064D01*
X43621Y-24950D02*
X43478Y-24850D01*
X43621Y-24778D02*
X43321Y-24778D01*
X43321Y-24892D01*
X43335Y-24921D01*
X43350Y-24935D01*
X43378Y-24950D01*
X43421Y-24950D01*
X43450Y-24935D01*
X43464Y-24921D01*
X43478Y-24892D01*
X43478Y-24778D01*
X43350Y-25064D02*
X43335Y-25078D01*
X43321Y-25107D01*
X43321Y-25178D01*
X43335Y-25207D01*
X43350Y-25221D01*
X43378Y-25235D01*
X43407Y-25235D01*
X43450Y-25221D01*
X43621Y-25050D01*
X43621Y-25235D01*
X55621Y-26950D02*
X55478Y-26850D01*
X55621Y-26778D02*
X55321Y-26778D01*
X55321Y-26892D01*
X55335Y-26921D01*
X55350Y-26935D01*
X55378Y-26950D01*
X55421Y-26950D01*
X55450Y-26935D01*
X55464Y-26921D01*
X55478Y-26892D01*
X55478Y-26778D01*
X55321Y-27050D02*
X55321Y-27235D01*
X55435Y-27135D01*
X55435Y-27178D01*
X55450Y-27207D01*
X55464Y-27221D01*
X55492Y-27235D01*
X55564Y-27235D01*
X55592Y-27221D01*
X55607Y-27207D01*
X55621Y-27178D01*
X55621Y-27092D01*
X55607Y-27064D01*
X55592Y-27050D01*
X43621Y-32950D02*
X43478Y-32850D01*
X43621Y-32778D02*
X43321Y-32778D01*
X43321Y-32892D01*
X43335Y-32921D01*
X43350Y-32935D01*
X43378Y-32950D01*
X43421Y-32950D01*
X43450Y-32935D01*
X43464Y-32921D01*
X43478Y-32892D01*
X43478Y-32778D01*
X43321Y-33221D02*
X43321Y-33078D01*
X43464Y-33064D01*
X43450Y-33078D01*
X43435Y-33107D01*
X43435Y-33178D01*
X43450Y-33207D01*
X43464Y-33221D01*
X43492Y-33235D01*
X43564Y-33235D01*
X43592Y-33221D01*
X43607Y-33207D01*
X43621Y-33178D01*
X43621Y-33107D01*
X43607Y-33078D01*
X43592Y-33064D01*
X31621Y-42950D02*
X31478Y-42850D01*
X31621Y-42778D02*
X31321Y-42778D01*
X31321Y-42892D01*
X31335Y-42921D01*
X31350Y-42935D01*
X31378Y-42950D01*
X31421Y-42950D01*
X31450Y-42935D01*
X31464Y-42921D01*
X31478Y-42892D01*
X31478Y-42778D01*
X31321Y-43050D02*
X31321Y-43250D01*
X31621Y-43121D01*
X55621Y-34950D02*
X55478Y-34850D01*
X55621Y-34778D02*
X55321Y-34778D01*
X55321Y-34892D01*
X55335Y-34921D01*
X55350Y-34935D01*
X55378Y-34950D01*
X55421Y-34950D01*
X55450Y-34935D01*
X55464Y-34921D01*
X55478Y-34892D01*
X55478Y-34778D01*
X55321Y-35207D02*
X55321Y-35150D01*
X55335Y-35121D01*
X55350Y-35107D01*
X55392Y-35078D01*
X55450Y-35064D01*
X55564Y-35064D01*
X55592Y-35078D01*
X55607Y-35092D01*
X55621Y-35121D01*
X55621Y-35178D01*
X55607Y-35207D01*
X55592Y-35221D01*
X55564Y-35235D01*
X55492Y-35235D01*
X55464Y-35221D01*
X55450Y-35207D01*
X55435Y-35178D01*
X55435Y-35121D01*
X55450Y-35092D01*
X55464Y-35078D01*
X55492Y-35064D01*
M02*
