M48
INCH,TZ
T1C0.032
T2C0.060
T3C0.120
%
G90
G05
T1
X31500Y-24000
X31500Y-32000
X31500Y-40000
X31500Y-48000
X31500Y-56000
X31500Y-64000
X31500Y-72000
X32500Y-24000
X32500Y-32000
X32500Y-40000
X32500Y-48000
X32500Y-56000
X32500Y-64000
X32500Y-72000
X35500Y-28000
X35500Y-36000
X35500Y-44000
X35500Y-52000
X35500Y-60000
X35500Y-68000
X35500Y-76000
X36500Y-28000
X36500Y-36000
X36500Y-44000
X36500Y-52000
X36500Y-60000
X36500Y-68000
X36500Y-76000
X39500Y-24000
X39500Y-32000
X39500Y-40000
X39500Y-48000
X39500Y-56000
X39500Y-64000
X39500Y-72000
X40500Y-24000
X40500Y-32000
X40500Y-40000
X40500Y-48000
X40500Y-56000
X40500Y-64000
X40500Y-72000
X43500Y-28000
X43500Y-36000
X43500Y-44000
X43500Y-52000
X43500Y-60000
X43500Y-68000
X43500Y-76000
X44500Y-28000
X44500Y-36000
X44500Y-44000
X44500Y-52000
X44500Y-60000
X44500Y-68000
X44500Y-76000
X47500Y-24000
X47500Y-32000
X47500Y-40000
X47500Y-48000
X47500Y-56000
X47500Y-64000
X47500Y-72000
X48500Y-24000
X48500Y-32000
X48500Y-40000
X48500Y-48000
X48500Y-56000
X48500Y-64000
X48500Y-72000
X51500Y-28000
X51500Y-36000
X51500Y-44000
X51500Y-52000
X51500Y-60000
X51500Y-68000
X51500Y-76000
X52500Y-28000
X52500Y-36000
X52500Y-44000
X52500Y-52000
X52500Y-60000
X52500Y-68000
X52500Y-76000
X55500Y-24000
X55500Y-32000
X55500Y-40000
X55500Y-48000
X55500Y-56000
X55500Y-64000
X55500Y-72000
X56500Y-24000
X56500Y-32000
X56500Y-40000
X56500Y-48000
X56500Y-56000
X56500Y-64000
X56500Y-72000
X59500Y-28000
X59500Y-36000
X59500Y-44000
X59500Y-52000
X59500Y-60000
X59500Y-68000
X59500Y-76000
X60500Y-28000
X60500Y-36000
X60500Y-44000
X60500Y-52000
X60500Y-60000
X60500Y-68000
X60500Y-76000
X63500Y-24000
X63500Y-32000
X63500Y-40000
X63500Y-48000
X63500Y-56000
X63500Y-64000
X63500Y-72000
X64500Y-24000
X64500Y-32000
X64500Y-40000
X64500Y-48000
X64500Y-56000
X64500Y-64000
X64500Y-72000
T2
X30800Y-80000
X32800Y-80000
T3
X27638Y-20079
X27638Y-79921
X63858Y-20079
X63858Y-79921
T0
M30
