M48
;DRILL file {Pcbnew (2013-june-11)-stable} date Thu 27 Nov 2014 20:22:01 CET
;FORMAT={-:-/ absolute / inch / decimal}
FMAT,2
INCH,TZ
T1C0.025
T2C0.030
T3C0.031
T4C0.032
T5C0.040
T6C0.052
T7C0.120
%
G90
G05
M72
T1
X9.1Y-6.15
X10.05Y-5.75
X10.15Y-5.75
X10.8Y-6.25
T2
X10.15Y-5.6
X10.35Y-5.6
T3
X8.Y-5.8
X8.Y-6.2
X8.1Y-5.8
X8.1Y-6.2
X8.2Y-5.8
X8.2Y-6.2
X8.3Y-5.8
X8.3Y-6.2
X8.4Y-5.8
X8.4Y-6.2
X8.5Y-5.8
X8.5Y-6.2
X8.6Y-5.8
X8.6Y-6.2
X8.7Y-5.8
X8.7Y-6.2
T4
X6.2Y-5.9
X6.2Y-6.1
X6.7Y-5.9
X6.7Y-6.1
X6.9Y-5.6
X6.9Y-5.8
X6.9Y-6.2
X6.9Y-6.4
X7.4Y-5.6
X7.4Y-5.8
X7.4Y-6.2
X7.4Y-6.4
X8.Y-5.25
X8.Y-5.55
X8.1Y-5.25
X8.1Y-5.55
X8.2Y-5.25
X8.2Y-5.55
X8.2Y-6.45
X8.2Y-6.75
X8.3Y-5.25
X8.3Y-5.55
X8.4Y-5.25
X8.4Y-5.55
X8.4Y-6.45
X8.4Y-6.75
X8.5Y-5.25
X8.5Y-5.55
X8.6Y-6.45
X8.6Y-6.75
X8.7Y-5.25
X8.7Y-5.55
X9.1Y-5.35
X9.1Y-5.55
X9.4Y-5.35
X9.4Y-5.55
X9.4Y-5.85
X9.4Y-6.15
X9.5Y-5.85
X9.5Y-6.15
X9.6Y-5.55
X9.6Y-5.85
X9.6Y-6.15
X9.7Y-5.85
X9.7Y-6.15
X9.8Y-5.85
X9.8Y-6.15
X9.9Y-5.55
X9.9Y-5.85
X9.9Y-6.15
X10.Y-5.85
X10.Y-6.15
X10.1Y-5.85
X10.1Y-6.15
X10.15Y-5.3
X10.15Y-5.4
X10.2Y-5.85
X10.2Y-6.15
X10.3Y-5.85
X10.3Y-6.15
X10.35Y-5.3
X10.35Y-5.4
X10.4Y-5.85
X10.4Y-6.15
X10.5Y-5.85
X10.5Y-6.15
X10.6Y-5.85
X10.6Y-6.15
X10.7Y-5.85
X10.7Y-6.15
X10.7Y-6.6
X10.85Y-5.7
X11.Y-6.6
X11.15Y-5.7
X11.4Y-6.6
X11.7Y-6.6
T5
X10.Y-6.35
X10.Y-6.45
X10.1Y-6.35
X10.1Y-6.45
X10.2Y-6.35
X10.2Y-6.45
X10.6Y-6.35
X10.6Y-6.45
X11.3Y-5.9
X11.3Y-6.
X11.3Y-6.1
T6
X11.8Y-5.252
X11.8Y-5.449
X11.8Y-5.902
X11.8Y-6.099
T7
X6.05Y-5.25
X6.05Y-6.75
X7.65Y-5.25
X7.65Y-6.75
X11.95Y-6.75
T0
M30
