G04 (created by PCBNEW (2013-june-11)-stable) date Thu 27 Nov 2014 20:22:07 CET*
%MOIN*%
G04 Gerber Fmt 3.4, Leading zero omitted, Abs format*
%FSLAX34Y34*%
G01*
G70*
G90*
G04 APERTURE LIST*
%ADD10C,0.00590551*%
%ADD11C,0.16*%
%ADD12O,0.12X0.068*%
%ADD13C,0.07*%
%ADD14O,0.156X0.078*%
%ADD15C,0.055*%
%ADD16R,0.06X0.06*%
%ADD17C,0.06*%
%ADD18C,0.056*%
%ADD19R,0.056X0.056*%
%ADD20O,0.062X0.09*%
%ADD21R,0.062X0.09*%
%ADD22R,0.07X0.07*%
%ADD23C,0.035*%
%ADD24C,0.02*%
%ADD25C,0.01*%
%ADD26C,0.05*%
%ADD27C,0.1*%
G04 APERTURE END LIST*
G54D10*
G54D11*
X76500Y-52500D03*
X76500Y-67500D03*
G54D12*
X67000Y-59000D03*
X67000Y-61000D03*
X62000Y-59000D03*
X62000Y-61000D03*
X74000Y-62000D03*
X74000Y-64000D03*
X69000Y-62000D03*
X69000Y-64000D03*
X74000Y-56000D03*
X74000Y-58000D03*
X69000Y-56000D03*
X69000Y-58000D03*
G54D13*
X80000Y-62000D03*
X81000Y-62000D03*
X82000Y-62000D03*
X83000Y-62000D03*
X84000Y-62000D03*
X85000Y-62000D03*
X86000Y-62000D03*
X87000Y-62000D03*
X87000Y-58000D03*
X86000Y-58000D03*
X85000Y-58000D03*
X84000Y-58000D03*
X83000Y-58000D03*
X82000Y-58000D03*
X81000Y-58000D03*
X80000Y-58000D03*
G54D14*
X118000Y-60990D03*
X118000Y-59020D03*
X118000Y-54490D03*
X118000Y-52520D03*
G54D15*
X94000Y-55500D03*
X94000Y-53500D03*
X91000Y-55500D03*
X91000Y-53500D03*
G54D16*
X102000Y-64500D03*
G54D17*
X102000Y-63500D03*
X101000Y-64500D03*
X101000Y-63500D03*
X100000Y-64500D03*
X100000Y-63500D03*
G54D16*
X106000Y-63500D03*
G54D17*
X106000Y-64500D03*
G54D18*
X101500Y-56000D03*
X103500Y-56000D03*
G54D15*
X103500Y-53000D03*
X103500Y-54000D03*
X101500Y-53000D03*
X101500Y-54000D03*
G54D19*
X114000Y-66000D03*
G54D18*
X117000Y-66000D03*
G54D20*
X95000Y-58500D03*
X96000Y-58500D03*
X97000Y-58500D03*
X98000Y-58500D03*
X99000Y-58500D03*
X100000Y-58500D03*
X101000Y-58500D03*
X102000Y-58500D03*
X103000Y-58500D03*
X104000Y-58500D03*
X105000Y-58500D03*
X106000Y-58500D03*
X107000Y-58500D03*
G54D21*
X94000Y-58500D03*
G54D20*
X107000Y-61500D03*
X106000Y-61500D03*
X105000Y-61500D03*
X104000Y-61500D03*
X103000Y-61500D03*
X102000Y-61500D03*
X101000Y-61500D03*
X100000Y-61500D03*
X99000Y-61500D03*
X98000Y-61500D03*
X97000Y-61500D03*
X96000Y-61500D03*
X95000Y-61500D03*
X94000Y-61500D03*
G54D15*
X82000Y-67500D03*
X82000Y-64500D03*
X110000Y-66000D03*
X107000Y-66000D03*
X86000Y-67500D03*
X86000Y-64500D03*
X81000Y-52500D03*
X81000Y-55500D03*
X85000Y-52500D03*
X85000Y-55500D03*
X84000Y-67500D03*
X84000Y-64500D03*
X83000Y-52500D03*
X83000Y-55500D03*
X80000Y-52500D03*
X80000Y-55500D03*
X82000Y-52500D03*
X82000Y-55500D03*
X87000Y-52500D03*
X87000Y-55500D03*
X84000Y-52500D03*
X84000Y-55500D03*
X96000Y-55500D03*
X99000Y-55500D03*
X108500Y-57000D03*
X111500Y-57000D03*
G54D13*
X113000Y-59000D03*
X113000Y-60000D03*
G54D22*
X113000Y-61000D03*
G54D11*
X60500Y-52500D03*
X60500Y-67500D03*
X119500Y-67500D03*
G54D23*
X108000Y-62500D03*
X101500Y-57500D03*
X100500Y-57500D03*
X91000Y-61500D03*
G54D24*
X113020Y-54000D02*
X113020Y-54500D01*
X99500Y-52000D02*
X99000Y-52500D01*
X112500Y-52000D02*
X99500Y-52000D01*
X113020Y-52520D02*
X112500Y-52000D01*
X113020Y-54000D02*
X113020Y-52520D01*
X99000Y-55500D02*
X99000Y-52500D01*
X113020Y-54500D02*
X113000Y-54500D01*
X108000Y-62500D02*
X110000Y-60500D01*
X110000Y-60500D02*
X110000Y-55000D01*
X110000Y-55000D02*
X110500Y-54500D01*
X110500Y-54500D02*
X113000Y-54500D01*
X113500Y-54500D02*
X113510Y-54490D01*
X118000Y-54490D02*
X113510Y-54490D01*
X113000Y-54500D02*
X113500Y-54500D01*
X100000Y-58500D02*
X100000Y-56000D01*
X99500Y-55500D02*
X99000Y-55500D01*
X100000Y-56000D02*
X99500Y-55500D01*
X102000Y-61500D02*
X102000Y-63500D01*
X100000Y-62750D02*
X99250Y-62750D01*
X106000Y-65500D02*
X106000Y-64500D01*
X105500Y-66000D02*
X106000Y-65500D01*
X99500Y-66000D02*
X105500Y-66000D01*
X99000Y-65500D02*
X99500Y-66000D01*
X99000Y-63000D02*
X99000Y-65500D01*
X99250Y-62750D02*
X99000Y-63000D01*
X100000Y-61500D02*
X100000Y-62750D01*
X100000Y-62750D02*
X100000Y-63500D01*
X102000Y-58500D02*
X102000Y-56500D01*
X102000Y-56500D02*
X101500Y-56000D01*
X101500Y-56000D02*
X101500Y-54000D01*
G54D25*
X95000Y-58500D02*
X95000Y-57750D01*
X80000Y-54000D02*
X80500Y-54500D01*
X80500Y-54500D02*
X88250Y-54500D01*
X80000Y-54000D02*
X80000Y-52500D01*
X88500Y-54750D02*
X88250Y-54500D01*
X88500Y-57250D02*
X88500Y-54750D01*
X88750Y-57500D02*
X88500Y-57250D01*
X94750Y-57500D02*
X88750Y-57500D01*
X95000Y-57750D02*
X94750Y-57500D01*
G54D26*
X113000Y-60000D02*
X114000Y-60000D01*
G54D27*
X114000Y-60000D02*
X118000Y-60000D01*
X118000Y-59020D02*
X118000Y-60000D01*
X118000Y-60000D02*
X118000Y-60990D01*
G54D24*
X82000Y-67500D02*
X83000Y-66500D01*
X104000Y-59000D02*
X104000Y-58500D01*
X103500Y-59500D02*
X104000Y-59000D01*
X92000Y-59500D02*
X103500Y-59500D01*
X91500Y-60000D02*
X92000Y-59500D01*
X91500Y-66000D02*
X91500Y-60000D01*
X91000Y-66500D02*
X91500Y-66000D01*
X83000Y-66500D02*
X91000Y-66500D01*
G54D25*
X88250Y-54250D02*
X88500Y-54250D01*
X96000Y-57500D02*
X95750Y-57250D01*
X95750Y-57250D02*
X89000Y-57250D01*
X89000Y-57250D02*
X88750Y-57000D01*
X88750Y-57000D02*
X88750Y-54500D01*
X88750Y-54500D02*
X88500Y-54250D01*
X96000Y-57500D02*
X96000Y-58500D01*
X81000Y-52500D02*
X81000Y-53750D01*
X81500Y-54250D02*
X88250Y-54250D01*
X88250Y-54250D02*
X88250Y-54250D01*
X81000Y-53750D02*
X81500Y-54250D01*
X97000Y-58500D02*
X97000Y-57250D01*
X82000Y-53500D02*
X82500Y-54000D01*
X82500Y-54000D02*
X88250Y-54000D01*
X82000Y-53500D02*
X82000Y-52500D01*
X88750Y-54000D02*
X88250Y-54000D01*
X89000Y-54250D02*
X88750Y-54000D01*
X89000Y-56750D02*
X89000Y-54250D01*
X89250Y-57000D02*
X89000Y-56750D01*
X96750Y-57000D02*
X89250Y-57000D01*
X97000Y-57250D02*
X96750Y-57000D01*
X98000Y-58500D02*
X98000Y-57000D01*
X83000Y-53250D02*
X83500Y-53750D01*
X83500Y-53750D02*
X88250Y-53750D01*
X83000Y-53250D02*
X83000Y-52500D01*
X89000Y-53750D02*
X88250Y-53750D01*
X89250Y-54000D02*
X89000Y-53750D01*
X89250Y-56500D02*
X89250Y-54000D01*
X89549Y-56750D02*
X89250Y-56500D01*
X97799Y-56750D02*
X89549Y-56750D01*
X98000Y-57000D02*
X97799Y-56750D01*
X89500Y-53750D02*
X89250Y-53500D01*
X99000Y-56750D02*
X98750Y-56500D01*
X98750Y-56500D02*
X89750Y-56500D01*
X89750Y-56500D02*
X89500Y-56250D01*
X89500Y-56250D02*
X89500Y-53750D01*
X99000Y-58500D02*
X99000Y-56750D01*
X89250Y-53500D02*
X88250Y-53500D01*
X85000Y-52500D02*
X85000Y-53000D01*
X85500Y-53500D02*
X88250Y-53500D01*
X88250Y-53500D02*
X88250Y-53500D01*
X85000Y-53000D02*
X85500Y-53500D01*
G54D24*
X110000Y-66000D02*
X114000Y-66000D01*
X107000Y-61500D02*
X107000Y-66000D01*
X106000Y-61500D02*
X106000Y-63500D01*
X107000Y-58500D02*
X107000Y-57500D01*
X107500Y-57000D02*
X108500Y-57000D01*
X107000Y-57500D02*
X107500Y-57000D01*
X111500Y-57000D02*
X111500Y-58500D01*
X112000Y-59000D02*
X113000Y-59000D01*
X111500Y-58500D02*
X112000Y-59000D01*
X80000Y-55500D02*
X80000Y-58000D01*
X82000Y-62000D02*
X82000Y-64500D01*
X84000Y-62000D02*
X84000Y-64500D01*
X86000Y-62000D02*
X86000Y-64500D01*
X87000Y-55500D02*
X87000Y-58000D01*
X85000Y-55500D02*
X85000Y-58000D01*
X84000Y-55500D02*
X84000Y-58000D01*
X83000Y-55500D02*
X83000Y-58000D01*
X82000Y-55500D02*
X82000Y-58000D01*
X81000Y-55500D02*
X81000Y-58000D01*
G54D25*
X101500Y-57500D02*
X100500Y-57500D01*
G54D24*
X96000Y-55500D02*
X94000Y-55500D01*
X94000Y-55500D02*
X91000Y-55500D01*
X84000Y-67500D02*
X84500Y-67000D01*
X105000Y-59000D02*
X105000Y-58500D01*
X104000Y-60000D02*
X105000Y-59000D01*
X92500Y-60000D02*
X104000Y-60000D01*
X92000Y-60500D02*
X92500Y-60000D01*
X92000Y-66500D02*
X92000Y-60500D01*
X91500Y-67000D02*
X92000Y-66500D01*
X84500Y-67000D02*
X91500Y-67000D01*
X106000Y-58500D02*
X106000Y-59000D01*
X92000Y-67500D02*
X86000Y-67500D01*
X92500Y-67000D02*
X92000Y-67500D01*
X92500Y-61000D02*
X92500Y-67000D01*
X93000Y-60500D02*
X92500Y-61000D01*
X104500Y-60500D02*
X93000Y-60500D01*
X106000Y-59000D02*
X104500Y-60500D01*
G54D25*
X101000Y-63500D02*
X100500Y-64000D01*
G54D24*
X105000Y-65000D02*
X105000Y-61500D01*
X104500Y-65500D02*
X105000Y-65000D01*
X101000Y-65500D02*
X104500Y-65500D01*
X100500Y-65000D02*
X101000Y-65500D01*
G54D25*
X100500Y-64000D02*
X100500Y-65000D01*
G54D24*
X102000Y-64500D02*
X103500Y-64500D01*
X104000Y-64000D02*
X104000Y-61500D01*
X103500Y-64500D02*
X104000Y-64000D01*
G54D25*
X101000Y-64500D02*
X101500Y-64000D01*
G54D24*
X103000Y-63500D02*
X103000Y-61500D01*
X102500Y-64000D02*
X103000Y-63500D01*
G54D25*
X101500Y-64000D02*
X102500Y-64000D01*
G54D24*
X103000Y-58500D02*
X103000Y-56500D01*
X103000Y-56500D02*
X103500Y-56000D01*
X103500Y-56000D02*
X103500Y-54000D01*
X86000Y-58000D02*
X86000Y-60500D01*
X90500Y-61000D02*
X91000Y-61500D01*
X86500Y-61000D02*
X90500Y-61000D01*
X86000Y-60500D02*
X86500Y-61000D01*
M02*
