G04 (created by PCBNEW (2013-june-11)-stable) date Thu 27 Nov 2014 20:22:07 CET*
%MOIN*%
G04 Gerber Fmt 3.4, Leading zero omitted, Abs format*
%FSLAX34Y34*%
G01*
G70*
G90*
G04 APERTURE LIST*
%ADD10C,0.00590551*%
%ADD11C,0.01*%
%ADD12C,0.00984252*%
%ADD13C,0.015*%
G04 APERTURE END LIST*
G54D10*
G54D11*
X94095Y-67023D02*
X94380Y-67023D01*
X94238Y-67823D02*
X94238Y-67023D01*
X94547Y-67823D02*
X94547Y-67290D01*
X94547Y-67023D02*
X94523Y-67061D01*
X94547Y-67100D01*
X94571Y-67061D01*
X94547Y-67023D01*
X94547Y-67100D01*
X94785Y-67823D02*
X94785Y-67290D01*
X94785Y-67366D02*
X94809Y-67328D01*
X94857Y-67290D01*
X94928Y-67290D01*
X94976Y-67328D01*
X95000Y-67404D01*
X95000Y-67823D01*
X95000Y-67404D02*
X95023Y-67328D01*
X95071Y-67290D01*
X95142Y-67290D01*
X95190Y-67328D01*
X95214Y-67404D01*
X95214Y-67823D01*
X95642Y-67785D02*
X95595Y-67823D01*
X95500Y-67823D01*
X95452Y-67785D01*
X95428Y-67709D01*
X95428Y-67404D01*
X95452Y-67328D01*
X95500Y-67290D01*
X95595Y-67290D01*
X95642Y-67328D01*
X95666Y-67404D01*
X95666Y-67480D01*
X95428Y-67557D01*
X95880Y-67823D02*
X95880Y-67290D01*
X95880Y-67442D02*
X95904Y-67366D01*
X95928Y-67328D01*
X95976Y-67290D01*
X96023Y-67290D01*
X96523Y-67290D02*
X96642Y-67823D01*
X96761Y-67290D01*
X96904Y-67023D02*
X97214Y-67023D01*
X97047Y-67328D01*
X97119Y-67328D01*
X97166Y-67366D01*
X97190Y-67404D01*
X97214Y-67480D01*
X97214Y-67671D01*
X97190Y-67747D01*
X97166Y-67785D01*
X97119Y-67823D01*
X96976Y-67823D01*
X96928Y-67785D01*
X96904Y-67747D01*
X97785Y-67100D02*
X97809Y-67061D01*
X97857Y-67023D01*
X97976Y-67023D01*
X98023Y-67061D01*
X98047Y-67100D01*
X98071Y-67176D01*
X98071Y-67252D01*
X98047Y-67366D01*
X97761Y-67823D01*
X98071Y-67823D01*
X98380Y-67023D02*
X98428Y-67023D01*
X98476Y-67061D01*
X98500Y-67100D01*
X98523Y-67176D01*
X98547Y-67328D01*
X98547Y-67519D01*
X98523Y-67671D01*
X98500Y-67747D01*
X98476Y-67785D01*
X98428Y-67823D01*
X98380Y-67823D01*
X98333Y-67785D01*
X98309Y-67747D01*
X98285Y-67671D01*
X98261Y-67519D01*
X98261Y-67328D01*
X98285Y-67176D01*
X98309Y-67100D01*
X98333Y-67061D01*
X98380Y-67023D01*
X99023Y-67823D02*
X98738Y-67823D01*
X98880Y-67823D02*
X98880Y-67023D01*
X98833Y-67138D01*
X98785Y-67214D01*
X98738Y-67252D01*
X99452Y-67290D02*
X99452Y-67823D01*
X99333Y-66985D02*
X99214Y-67557D01*
X99523Y-67557D01*
X100261Y-67404D02*
X100095Y-67404D01*
X100095Y-67823D02*
X100095Y-67023D01*
X100333Y-67023D01*
X100523Y-67823D02*
X100523Y-67290D01*
X100523Y-67442D02*
X100547Y-67366D01*
X100571Y-67328D01*
X100619Y-67290D01*
X100666Y-67290D01*
X101023Y-67785D02*
X100976Y-67823D01*
X100880Y-67823D01*
X100833Y-67785D01*
X100809Y-67709D01*
X100809Y-67404D01*
X100833Y-67328D01*
X100880Y-67290D01*
X100976Y-67290D01*
X101023Y-67328D01*
X101047Y-67404D01*
X101047Y-67480D01*
X100809Y-67557D01*
X101476Y-67823D02*
X101476Y-67023D01*
X101476Y-67785D02*
X101428Y-67823D01*
X101333Y-67823D01*
X101285Y-67785D01*
X101261Y-67747D01*
X101238Y-67671D01*
X101238Y-67442D01*
X101261Y-67366D01*
X101285Y-67328D01*
X101333Y-67290D01*
X101428Y-67290D01*
X101476Y-67328D01*
X101714Y-67823D02*
X101714Y-67290D01*
X101714Y-67442D02*
X101738Y-67366D01*
X101761Y-67328D01*
X101809Y-67290D01*
X101857Y-67290D01*
X102023Y-67823D02*
X102023Y-67290D01*
X102023Y-67023D02*
X102000Y-67061D01*
X102023Y-67100D01*
X102047Y-67061D01*
X102023Y-67023D01*
X102023Y-67100D01*
X102261Y-67823D02*
X102261Y-67023D01*
X102309Y-67519D02*
X102452Y-67823D01*
X102452Y-67290D02*
X102261Y-67595D01*
X103333Y-67823D02*
X103166Y-67442D01*
X103047Y-67823D02*
X103047Y-67023D01*
X103238Y-67023D01*
X103285Y-67061D01*
X103309Y-67100D01*
X103333Y-67176D01*
X103333Y-67290D01*
X103309Y-67366D01*
X103285Y-67404D01*
X103238Y-67442D01*
X103047Y-67442D01*
X103761Y-67823D02*
X103761Y-67404D01*
X103738Y-67328D01*
X103690Y-67290D01*
X103595Y-67290D01*
X103547Y-67328D01*
X103761Y-67785D02*
X103714Y-67823D01*
X103595Y-67823D01*
X103547Y-67785D01*
X103523Y-67709D01*
X103523Y-67633D01*
X103547Y-67557D01*
X103595Y-67519D01*
X103714Y-67519D01*
X103761Y-67480D01*
X104000Y-67823D02*
X104000Y-67290D01*
X104000Y-67366D02*
X104023Y-67328D01*
X104071Y-67290D01*
X104142Y-67290D01*
X104190Y-67328D01*
X104214Y-67404D01*
X104214Y-67823D01*
X104214Y-67404D02*
X104238Y-67328D01*
X104285Y-67290D01*
X104357Y-67290D01*
X104404Y-67328D01*
X104428Y-67404D01*
X104428Y-67823D01*
X104666Y-67823D02*
X104666Y-67023D01*
X104666Y-67328D02*
X104714Y-67290D01*
X104809Y-67290D01*
X104857Y-67328D01*
X104880Y-67366D01*
X104904Y-67442D01*
X104904Y-67671D01*
X104880Y-67747D01*
X104857Y-67785D01*
X104809Y-67823D01*
X104714Y-67823D01*
X104666Y-67785D01*
X105119Y-67823D02*
X105119Y-67290D01*
X105119Y-67442D02*
X105142Y-67366D01*
X105166Y-67328D01*
X105214Y-67290D01*
X105261Y-67290D01*
X105428Y-67823D02*
X105428Y-67290D01*
X105428Y-67023D02*
X105404Y-67061D01*
X105428Y-67100D01*
X105452Y-67061D01*
X105428Y-67023D01*
X105428Y-67100D01*
X105642Y-67785D02*
X105690Y-67823D01*
X105785Y-67823D01*
X105833Y-67785D01*
X105857Y-67709D01*
X105857Y-67671D01*
X105833Y-67595D01*
X105785Y-67557D01*
X105714Y-67557D01*
X105666Y-67519D01*
X105642Y-67442D01*
X105642Y-67404D01*
X105666Y-67328D01*
X105714Y-67290D01*
X105785Y-67290D01*
X105833Y-67328D01*
G54D12*
X64059Y-57140D02*
X64115Y-57159D01*
X64209Y-57159D01*
X64246Y-57140D01*
X64265Y-57121D01*
X64284Y-57084D01*
X64284Y-57046D01*
X64265Y-57009D01*
X64246Y-56990D01*
X64209Y-56971D01*
X64134Y-56953D01*
X64096Y-56934D01*
X64078Y-56915D01*
X64059Y-56878D01*
X64059Y-56840D01*
X64078Y-56803D01*
X64096Y-56784D01*
X64134Y-56765D01*
X64228Y-56765D01*
X64284Y-56784D01*
X64453Y-56953D02*
X64584Y-56953D01*
X64640Y-57159D02*
X64453Y-57159D01*
X64453Y-56765D01*
X64640Y-56765D01*
X64753Y-56765D02*
X64978Y-56765D01*
X64865Y-57159D02*
X64865Y-56765D01*
X71021Y-66159D02*
X71021Y-65765D01*
X71115Y-65765D01*
X71171Y-65784D01*
X71209Y-65821D01*
X71228Y-65859D01*
X71246Y-65934D01*
X71246Y-65990D01*
X71228Y-66065D01*
X71209Y-66103D01*
X71171Y-66140D01*
X71115Y-66159D01*
X71021Y-66159D01*
X71415Y-65953D02*
X71546Y-65953D01*
X71603Y-66159D02*
X71415Y-66159D01*
X71415Y-65765D01*
X71603Y-65765D01*
X71996Y-66121D02*
X71978Y-66140D01*
X71921Y-66159D01*
X71884Y-66159D01*
X71828Y-66140D01*
X71790Y-66103D01*
X71771Y-66065D01*
X71753Y-65990D01*
X71753Y-65934D01*
X71771Y-65859D01*
X71790Y-65821D01*
X71828Y-65784D01*
X71884Y-65765D01*
X71921Y-65765D01*
X71978Y-65784D01*
X71996Y-65803D01*
X71096Y-54159D02*
X71096Y-53765D01*
X71284Y-54159D02*
X71284Y-53765D01*
X71509Y-54159D01*
X71509Y-53765D01*
X71921Y-54121D02*
X71903Y-54140D01*
X71846Y-54159D01*
X71809Y-54159D01*
X71753Y-54140D01*
X71715Y-54103D01*
X71696Y-54065D01*
X71678Y-53990D01*
X71678Y-53934D01*
X71696Y-53859D01*
X71715Y-53821D01*
X71753Y-53784D01*
X71809Y-53765D01*
X71846Y-53765D01*
X71903Y-53784D01*
X71921Y-53803D01*
G54D13*
X77400Y-52500D02*
G75*
G03X77400Y-52500I-900J0D01*
G74*
G01*
X77400Y-67500D02*
G75*
G03X77400Y-67500I-900J0D01*
G74*
G01*
G54D11*
X66302Y-60000D02*
G75*
G03X66302Y-60000I-1802J0D01*
G74*
G01*
X62000Y-57500D02*
X67000Y-57500D01*
X67000Y-57500D02*
X67000Y-62500D01*
X67000Y-62500D02*
X62000Y-62500D01*
X62000Y-62500D02*
X62000Y-57500D01*
X73302Y-63000D02*
G75*
G03X73302Y-63000I-1802J0D01*
G74*
G01*
X69000Y-60500D02*
X74000Y-60500D01*
X74000Y-60500D02*
X74000Y-65500D01*
X74000Y-65500D02*
X69000Y-65500D01*
X69000Y-65500D02*
X69000Y-60500D01*
X73302Y-57000D02*
G75*
G03X73302Y-57000I-1802J0D01*
G74*
G01*
X69000Y-54500D02*
X74000Y-54500D01*
X74000Y-54500D02*
X74000Y-59500D01*
X74000Y-59500D02*
X69000Y-59500D01*
X69000Y-59500D02*
X69000Y-54500D01*
G54D10*
X88500Y-58250D02*
G75*
G03X88500Y-58250I-250J0D01*
G74*
G01*
X83750Y-59000D02*
G75*
G03X83750Y-59000I-250J0D01*
G74*
G01*
X83500Y-61000D02*
G75*
G03X83500Y-61000I-250J0D01*
G74*
G01*
X85500Y-62000D02*
X87000Y-62000D01*
X85250Y-61750D02*
X85500Y-60250D01*
X85750Y-60000D02*
X87250Y-60000D01*
X87250Y-61750D02*
X87500Y-60250D01*
X87500Y-59750D02*
X87750Y-58250D01*
X87500Y-58000D02*
X86000Y-58000D01*
X85750Y-58250D02*
X85500Y-59750D01*
X88000Y-61750D02*
G75*
G03X88000Y-61750I-250J0D01*
G74*
G01*
X91000Y-61750D02*
G75*
G03X91000Y-61750I-250J0D01*
G74*
G01*
X88750Y-58250D02*
X88500Y-59750D01*
X90500Y-58000D02*
X89000Y-58000D01*
X90500Y-59750D02*
X90750Y-58250D01*
X90250Y-61750D02*
X90500Y-60250D01*
X88750Y-60000D02*
X90250Y-60000D01*
X88250Y-61750D02*
X88500Y-60250D01*
X88500Y-62000D02*
X90000Y-62000D01*
X79500Y-62000D02*
X81000Y-62000D01*
X79250Y-61750D02*
X79500Y-60250D01*
X79750Y-60000D02*
X81250Y-60000D01*
X81250Y-61750D02*
X81500Y-60250D01*
X81500Y-59750D02*
X81750Y-58250D01*
X81500Y-58000D02*
X80000Y-58000D01*
X79750Y-58250D02*
X79500Y-59750D01*
X82000Y-61750D02*
G75*
G03X82000Y-61750I-250J0D01*
G74*
G01*
X79000Y-61750D02*
G75*
G03X79000Y-61750I-250J0D01*
G74*
G01*
X76750Y-58250D02*
X76500Y-59750D01*
X78500Y-58000D02*
X77000Y-58000D01*
X78500Y-59750D02*
X78750Y-58250D01*
X78250Y-61750D02*
X78500Y-60250D01*
X76750Y-60000D02*
X78250Y-60000D01*
X76250Y-61750D02*
X76500Y-60250D01*
X76500Y-62000D02*
X78000Y-62000D01*
X75590Y-57480D02*
X91409Y-57480D01*
X91409Y-57480D02*
X91409Y-62519D01*
X91409Y-62519D02*
X75590Y-62519D01*
X75590Y-62519D02*
X75590Y-57480D01*
G54D13*
X61400Y-52500D02*
G75*
G03X61400Y-52500I-900J0D01*
G74*
G01*
X61400Y-67500D02*
G75*
G03X61400Y-67500I-900J0D01*
G74*
G01*
X120400Y-67500D02*
G75*
G03X120400Y-67500I-900J0D01*
G74*
G01*
M02*
