G04 (created by PCBNEW (2013-june-11)-stable) date Thu 27 Nov 2014 20:22:07 CET*
%MOIN*%
G04 Gerber Fmt 3.4, Leading zero omitted, Abs format*
%FSLAX34Y34*%
G01*
G70*
G90*
G04 APERTURE LIST*
%ADD10C,0.00590551*%
%ADD11C,0.16*%
%ADD12O,0.12X0.068*%
%ADD13C,0.07*%
%ADD14O,0.156X0.078*%
%ADD15C,0.055*%
%ADD16R,0.06X0.06*%
%ADD17C,0.06*%
%ADD18C,0.056*%
%ADD19R,0.056X0.056*%
%ADD20O,0.062X0.09*%
%ADD21R,0.062X0.09*%
%ADD22R,0.07X0.07*%
%ADD23C,0.035*%
%ADD24C,0.02*%
%ADD25C,0.05*%
%ADD26C,0.1*%
%ADD27C,0.01*%
G04 APERTURE END LIST*
G54D10*
G54D11*
X76500Y-52500D03*
X76500Y-67500D03*
G54D12*
X67000Y-59000D03*
X67000Y-61000D03*
X62000Y-59000D03*
X62000Y-61000D03*
X74000Y-62000D03*
X74000Y-64000D03*
X69000Y-62000D03*
X69000Y-64000D03*
X74000Y-56000D03*
X74000Y-58000D03*
X69000Y-56000D03*
X69000Y-58000D03*
G54D13*
X80000Y-62000D03*
X81000Y-62000D03*
X82000Y-62000D03*
X83000Y-62000D03*
X84000Y-62000D03*
X85000Y-62000D03*
X86000Y-62000D03*
X87000Y-62000D03*
X87000Y-58000D03*
X86000Y-58000D03*
X85000Y-58000D03*
X84000Y-58000D03*
X83000Y-58000D03*
X82000Y-58000D03*
X81000Y-58000D03*
X80000Y-58000D03*
G54D14*
X118000Y-60990D03*
X118000Y-59020D03*
X118000Y-54490D03*
X118000Y-52520D03*
G54D15*
X94000Y-55500D03*
X94000Y-53500D03*
X91000Y-55500D03*
X91000Y-53500D03*
G54D16*
X102000Y-64500D03*
G54D17*
X102000Y-63500D03*
X101000Y-64500D03*
X101000Y-63500D03*
X100000Y-64500D03*
X100000Y-63500D03*
G54D16*
X106000Y-63500D03*
G54D17*
X106000Y-64500D03*
G54D18*
X101500Y-56000D03*
X103500Y-56000D03*
G54D15*
X103500Y-53000D03*
X103500Y-54000D03*
X101500Y-53000D03*
X101500Y-54000D03*
G54D19*
X114000Y-66000D03*
G54D18*
X117000Y-66000D03*
G54D20*
X95000Y-58500D03*
X96000Y-58500D03*
X97000Y-58500D03*
X98000Y-58500D03*
X99000Y-58500D03*
X100000Y-58500D03*
X101000Y-58500D03*
X102000Y-58500D03*
X103000Y-58500D03*
X104000Y-58500D03*
X105000Y-58500D03*
X106000Y-58500D03*
X107000Y-58500D03*
G54D21*
X94000Y-58500D03*
G54D20*
X107000Y-61500D03*
X106000Y-61500D03*
X105000Y-61500D03*
X104000Y-61500D03*
X103000Y-61500D03*
X102000Y-61500D03*
X101000Y-61500D03*
X100000Y-61500D03*
X99000Y-61500D03*
X98000Y-61500D03*
X97000Y-61500D03*
X96000Y-61500D03*
X95000Y-61500D03*
X94000Y-61500D03*
G54D15*
X82000Y-67500D03*
X82000Y-64500D03*
X110000Y-66000D03*
X107000Y-66000D03*
X86000Y-67500D03*
X86000Y-64500D03*
X81000Y-52500D03*
X81000Y-55500D03*
X85000Y-52500D03*
X85000Y-55500D03*
X84000Y-67500D03*
X84000Y-64500D03*
X83000Y-52500D03*
X83000Y-55500D03*
X80000Y-52500D03*
X80000Y-55500D03*
X82000Y-52500D03*
X82000Y-55500D03*
X87000Y-52500D03*
X87000Y-55500D03*
X84000Y-52500D03*
X84000Y-55500D03*
X96000Y-55500D03*
X99000Y-55500D03*
X108500Y-57000D03*
X111500Y-57000D03*
G54D13*
X113000Y-59000D03*
X113000Y-60000D03*
G54D22*
X113000Y-61000D03*
G54D11*
X60500Y-52500D03*
X60500Y-67500D03*
X119500Y-67500D03*
G54D23*
X108000Y-62500D03*
X101500Y-57500D03*
X100500Y-57500D03*
X91000Y-61500D03*
G54D24*
X102000Y-61500D02*
X101000Y-61500D01*
X102000Y-61500D02*
X102000Y-62000D01*
X102000Y-62000D02*
X102500Y-62500D01*
X102500Y-62500D02*
X108000Y-62500D01*
X117000Y-66000D02*
X117000Y-65500D01*
X110500Y-65000D02*
X110000Y-64500D01*
X110500Y-65000D02*
X116500Y-65000D01*
X116500Y-65000D02*
X117000Y-65500D01*
X106000Y-64500D02*
X110000Y-64500D01*
X110000Y-61000D02*
X110000Y-64500D01*
X103500Y-52500D02*
X110000Y-52500D01*
X110000Y-52500D02*
X110020Y-52520D01*
G54D25*
X113000Y-61000D02*
X112500Y-61000D01*
G54D26*
X112500Y-61000D02*
X112000Y-61500D01*
X112000Y-61500D02*
X110500Y-61500D01*
X110500Y-61500D02*
X110000Y-61000D01*
X110000Y-61000D02*
X110000Y-52500D01*
X110020Y-52520D02*
X118000Y-52520D01*
X110000Y-52500D02*
X110020Y-52520D01*
G54D24*
X69000Y-64000D02*
X74000Y-64000D01*
X69000Y-64000D02*
X60500Y-64000D01*
X60000Y-63500D02*
X60000Y-61000D01*
X60500Y-64000D02*
X60000Y-63500D01*
X60500Y-61000D02*
X60000Y-61000D01*
X67500Y-53500D02*
X60500Y-53500D01*
X60000Y-60500D02*
X60000Y-54000D01*
X61000Y-61000D02*
X60500Y-61000D01*
X61000Y-61000D02*
X62000Y-61000D01*
X60000Y-54000D02*
X60500Y-53500D01*
X60000Y-61000D02*
X60000Y-60500D01*
X69000Y-58000D02*
X68000Y-58000D01*
X67500Y-57500D02*
X67500Y-53500D01*
X68000Y-58000D02*
X67500Y-57500D01*
X68000Y-53500D02*
X67500Y-53500D01*
X84000Y-53500D02*
X68000Y-53500D01*
X67000Y-61000D02*
X62000Y-61000D01*
X69000Y-58000D02*
X74000Y-58000D01*
X84000Y-52500D02*
X84000Y-53500D01*
X84000Y-53500D02*
X87000Y-53500D01*
X87000Y-52500D02*
X87000Y-53500D01*
X87000Y-53500D02*
X91000Y-53500D01*
X91000Y-53500D02*
X100500Y-53500D01*
X101500Y-52500D02*
X101500Y-53000D01*
X103500Y-52500D02*
X103500Y-53000D01*
X101000Y-58500D02*
X101000Y-57000D01*
X117980Y-52500D02*
X118000Y-52520D01*
X101000Y-52500D02*
X101500Y-52500D01*
X101500Y-52500D02*
X103500Y-52500D01*
X100500Y-53000D02*
X101000Y-52500D01*
X100500Y-53500D02*
X100500Y-53000D01*
X100500Y-56500D02*
X100500Y-53500D01*
X101000Y-57000D02*
X100500Y-56500D01*
G54D27*
X87000Y-62000D02*
X87000Y-62500D01*
X95000Y-62500D02*
X95000Y-61500D01*
X94750Y-62750D02*
X95000Y-62500D01*
X87250Y-62750D02*
X94750Y-62750D01*
X87000Y-62500D02*
X87250Y-62750D01*
G54D26*
X118000Y-59020D02*
X118000Y-60990D01*
X118000Y-60000D02*
X114000Y-60000D01*
G54D25*
X114000Y-60000D02*
X113000Y-60000D01*
G54D27*
X108000Y-63000D02*
X108500Y-62500D01*
X99500Y-64000D02*
X99500Y-63000D01*
X99500Y-63000D02*
X100000Y-63000D01*
X100000Y-63000D02*
X108000Y-63000D01*
X108500Y-62000D02*
X108500Y-58500D01*
X108500Y-58500D02*
X107500Y-57500D01*
X107500Y-57500D02*
X101500Y-57500D01*
X94000Y-57500D02*
X100500Y-57500D01*
X99500Y-64000D02*
X100000Y-64500D01*
X108500Y-62500D02*
X108500Y-62000D01*
G54D24*
X94000Y-55500D02*
X94000Y-57500D01*
X94000Y-57500D02*
X94000Y-58500D01*
X74000Y-56000D02*
X69000Y-56000D01*
X91000Y-59500D02*
X76000Y-59500D01*
X105000Y-60000D02*
X104500Y-59500D01*
X104500Y-59500D02*
X91000Y-59500D01*
X105000Y-61500D02*
X105000Y-60000D01*
X75000Y-56000D02*
X74000Y-56000D01*
X75500Y-56500D02*
X75000Y-56000D01*
X75500Y-59000D02*
X75500Y-56500D01*
X76000Y-59500D02*
X75500Y-59000D01*
X67000Y-59000D02*
X62000Y-59000D01*
X91000Y-60000D02*
X69000Y-60000D01*
X104000Y-60500D02*
X103500Y-60000D01*
X103500Y-60000D02*
X91000Y-60000D01*
X104000Y-61500D02*
X104000Y-60500D01*
X68000Y-59000D02*
X67000Y-59000D01*
X69000Y-60000D02*
X68000Y-59000D01*
X74000Y-62000D02*
X69000Y-62000D01*
X91000Y-60500D02*
X76000Y-60500D01*
X103000Y-61000D02*
X102500Y-60500D01*
X102500Y-60500D02*
X91000Y-60500D01*
X103000Y-61500D02*
X103000Y-61000D01*
X75000Y-62000D02*
X74000Y-62000D01*
X75500Y-61500D02*
X75000Y-62000D01*
X75500Y-61000D02*
X75500Y-61500D01*
X76000Y-60500D02*
X75500Y-61000D01*
X91000Y-61500D02*
X94000Y-61500D01*
G54D27*
X80000Y-62000D02*
X80000Y-63500D01*
X99000Y-63500D02*
X99000Y-61500D01*
X98750Y-63750D02*
X99000Y-63500D01*
X80250Y-63750D02*
X98750Y-63750D01*
X80000Y-63500D02*
X80250Y-63750D01*
X81000Y-62000D02*
X81000Y-63250D01*
X98000Y-63250D02*
X98000Y-61500D01*
X97750Y-63500D02*
X98000Y-63250D01*
X81250Y-63500D02*
X97750Y-63500D01*
X81000Y-63250D02*
X81250Y-63500D01*
X83000Y-62000D02*
X83000Y-63000D01*
X97000Y-63000D02*
X97000Y-61500D01*
X96750Y-63250D02*
X97000Y-63000D01*
X83250Y-63250D02*
X96750Y-63250D01*
X83000Y-63000D02*
X83250Y-63250D01*
X85000Y-62000D02*
X85000Y-62750D01*
X96000Y-62750D02*
X96000Y-61500D01*
X95750Y-63000D02*
X96000Y-62750D01*
X85250Y-63000D02*
X95750Y-63000D01*
X85000Y-62750D02*
X85250Y-63000D01*
M02*
